# xmcd
# 
# Track frame offsets:
#     150
#     17826
#     37780
#     55080
#     67896
# 
# Disc length: 1102
# 
# Revision: 0
# Processed by: cddbd v1.5.2PL0 Copyright (c) Steve Scherf et al.
# Submitted via: fre:ac v1.0.17
# 
DISCID=32044c05
DTITLE=Slow Motion Victory - The War Inside
DYEAR=2011
DGENRE=Rock
TTITLE0=Breathless
TTITLE1=In the Beginning
TTITLE2=Life in Motion
TTITLE3=My Everything
TTITLE4=Forever
EXTD=
EXTT0=
EXTT1=
EXTT2=
EXTT3=
EXTT4=
PLAYORDER=
